<?xml version="1.0" encoding="iso-8859-1"?>
<!-- Uploaded to: SVG Repo, www.svgrepo.com, Generator: SVG Repo Mixer Tools -->
<!DOCTYPE svg PUBLIC "-//W3C//DTD SVG 1.1//EN" "http://www.w3.org/Graphics/SVG/1.1/DTD/svg11.dtd">
<svg fill="#000000" version="1.1" id="Capa_1" xmlns="http://www.w3.org/2000/svg" xmlns:xlink="http://www.w3.org/1999/xlink" 
	 width="800px" height="800px" viewBox="0 0 608.104 608.104"
	 xml:space="preserve">
<g>
	<g>
		<path d="M476.689,84.207c-2.443,0-4.912,0.172-7.337,0.51c-0.055,0.008-0.109,0.015-0.164,0.023l-241.86,34.741
			c-12.717,1.809-24.357,8.137-32.791,17.829c-8.462,9.727-13.124,22.185-13.124,35.077v134.527
			c-13.557,0.354-26.755,3.204-39.27,8.488c-12.883,5.439-24.47,13.211-34.438,23.099c-9.976,9.895-17.844,21.427-23.386,34.274
			c-5.769,13.375-8.746,27.56-8.845,42.16c-0.102,14.744,2.708,29.084,8.353,42.618c5.44,13.047,13.263,24.761,23.251,34.817
			c9.99,10.06,21.653,17.963,34.665,23.494c13.493,5.735,27.808,8.644,42.545,8.644c14.56,0,28.714-2.841,42.071-8.443
			c12.88-5.403,24.461-13.136,34.422-22.982c9.954-9.84,17.815-21.323,23.368-34.131c5.593-12.901,8.592-26.585,8.92-40.687
			c0.023-0.578,0.036-1.158,0.036-1.74V259.918l124.778-18.062v27.807c-13.638,0.354-26.902,3.227-39.469,8.556
			c-12.94,5.486-24.561,13.324-34.538,23.294c-9.983,9.976-17.831,21.596-23.325,34.538c-5.713,13.459-8.609,27.722-8.609,42.392
			c0,14.671,2.884,28.926,8.569,42.369c5.483,12.962,13.323,24.595,23.304,34.574c9.979,9.979,21.611,17.819,34.574,23.302
			c13.442,5.687,27.697,8.569,42.368,8.569c0.271,0,0.536-0.001,0.807-0.003c14.646-0.105,28.899-3.157,42.352-9.071
			c12.807-5.631,24.308-13.597,34.183-23.676c9.82-10.023,17.546-21.64,22.962-34.527c5.648-13.441,8.513-27.628,8.513-42.166
			V137.11C529.573,107.938,505.849,84.207,476.689,84.207z M486.732,377.814c0,36.024-29.466,66.342-65.489,66.602
			c-0.164,0.001-0.323,0.002-0.485,0.002c-36.436,0-65.976-29.539-65.977-65.975c0-36.366,29.678-65.979,65.979-65.977
			c0.174,0,0.351,0,0.524,0.002c9.77,0.076,19.032,2.277,27.351,6.164c1.188,0.555,2.413,0.811,3.606,0.811
			c4.461,0,8.48-3.578,8.48-8.481v-106.35c0-5.932-4.833-10.601-10.579-10.601c-0.49,0-0.986,0.034-1.486,0.104l-189.261,27.396
			c-5.236,0.731-9.133,5.21-9.133,10.497v184.519l-0.011-0.001c-0.446,36.054-29.806,65.145-65.965,65.145
			c-36.592,0-66.226-29.789-65.975-66.438c0.249-36.15,29.921-65.516,65.983-65.513c0.246,0,0.497,0.001,0.743,0.004
			c9.687,0.108,18.872,2.306,27.127,6.161c1.188,0.556,2.413,0.812,3.606,0.812c4.461,0,8.48-3.578,8.48-8.481V172.388
			c0-5.287,3.896-9.766,9.133-10.497l241.892-34.746c0.476-0.066,0.945-0.099,1.411-0.099c5.456,0,10.043,4.433,10.043,10.064
			L486.732,377.814L486.732,377.814z"/>
		<path d="M184.288,525.01c-14.805,0-29.185-2.922-42.741-8.684c-13.074-5.558-24.79-13.498-34.824-23.602
			c-10.034-10.104-17.893-21.871-23.357-34.978c-5.67-13.597-8.493-28.001-8.391-42.814c0.1-14.666,3.09-28.916,8.886-42.354
			c5.567-12.907,13.471-24.492,23.493-34.432c10.014-9.933,21.654-17.739,34.596-23.204c12.41-5.24,25.516-8.104,38.964-8.514
			V172.388c0-13.013,4.704-25.587,13.246-35.405c8.51-9.78,20.264-16.171,33.098-17.996l241.968-34.757
			c2.507-0.35,4.999-0.523,7.464-0.523c29.436,0,53.384,23.957,53.384,53.404v240.704c0,14.604-2.877,28.856-8.552,42.359
			c-5.44,12.945-13.2,24.615-23.065,34.684c-9.92,10.125-21.474,18.127-34.339,23.784c-13.514,5.941-27.83,9.007-42.549,9.113
			l-0.811,0.003c-14.739,0-29.06-2.896-42.563-8.608c-13.022-5.509-24.709-13.384-34.732-23.409
			c-10.024-10.023-17.901-21.71-23.411-34.732c-5.712-13.508-8.608-27.828-8.608-42.564c0-14.738,2.91-29.066,8.649-42.587
			c5.52-13.002,13.402-24.675,23.432-34.696c10.024-10.017,21.698-17.89,34.696-23.401c12.462-5.285,25.636-8.171,39.164-8.582
			v-26.743l-123.778,17.917v156.175c0,0.589-0.013,1.176-0.036,1.76c-0.329,14.159-3.344,27.911-8.96,40.866
			c-5.579,12.867-13.477,24.403-23.476,34.287c-10.007,9.893-21.642,17.66-34.58,23.088
			C213.134,522.156,198.914,525.01,184.288,525.01z M476.689,84.707c-2.419,0-4.864,0.17-7.268,0.505l-0.158,0.022l-241.864,34.742
			c-12.596,1.791-24.132,8.064-32.485,17.662c-8.383,9.636-13,21.977-13,34.749v135.015l-0.487,0.013
			c-13.493,0.352-26.644,3.194-39.088,8.449c-12.824,5.414-24.357,13.15-34.28,22.992c-9.93,9.85-17.762,21.328-23.279,34.118
			c-5.743,13.314-8.705,27.434-8.804,41.965c-0.101,14.679,2.696,28.951,8.314,42.423c5.415,12.986,13.202,24.646,23.145,34.657
			c9.941,10.012,21.551,17.88,34.505,23.387c13.431,5.709,27.679,8.604,42.349,8.604c14.493,0,28.583-2.828,41.878-8.404
			c12.82-5.378,24.348-13.075,34.264-22.877c9.907-9.794,17.733-21.225,23.261-33.975c5.564-12.836,8.552-26.462,8.878-40.499
			c0.023-0.58,0.036-1.153,0.036-1.729V259.486l125.778-18.207v28.872l-0.487,0.013c-13.573,0.352-26.791,3.218-39.286,8.517
			c-12.88,5.46-24.446,13.261-34.38,23.187c-9.938,9.93-17.75,21.497-23.219,34.38c-5.687,13.396-8.569,27.594-8.569,42.196
			c0,14.602,2.87,28.792,8.53,42.175c5.459,12.903,13.263,24.482,23.196,34.415c9.933,9.934,21.512,17.737,34.415,23.194
			c13.38,5.66,27.569,8.53,42.174,8.53l0.803-0.003c14.583-0.105,28.766-3.143,42.154-9.029
			c12.748-5.604,24.196-13.534,34.026-23.567c9.776-9.979,17.468-21.543,22.858-34.371c5.623-13.381,8.474-27.502,8.474-41.973
			V137.11C529.073,108.215,505.574,84.707,476.689,84.707z M184.287,482.17c-17.843,0-34.594-6.973-47.168-19.633
			c-12.573-12.659-19.429-29.461-19.307-47.309c0.25-36.398,30.072-66.01,66.478-66.01v0.5l0.002-0.5l0.752,0.004
			c9.545,0.106,18.741,2.195,27.333,6.208c1.085,0.508,2.228,0.765,3.395,0.765c4.4,0,7.98-3.58,7.98-7.981V172.388
			c0-5.505,4.111-10.23,9.563-10.992l241.89-34.746c0.494-0.069,0.992-0.104,1.482-0.104c5.813,0,10.543,4.739,10.543,10.564
			v240.704c0,17.594-6.882,34.308-19.378,47.062c-12.536,12.796-29.089,19.913-46.606,20.039l-0.489,0.002
			c-36.654,0-66.476-29.82-66.477-66.475c0-36.655,29.821-66.477,66.476-66.477l0.534,0.002c9.624,0.075,18.896,2.165,27.557,6.211
			c1.085,0.507,2.228,0.764,3.395,0.764c4.4,0,7.98-3.58,7.98-7.981v-106.35c0-5.57-4.521-10.101-10.079-10.101
			c-0.472,0-0.949,0.033-1.417,0.099l-189.258,27.396c-4.963,0.693-8.705,4.993-8.705,10.002v185.064l-0.02-0.002
			C250.009,453.018,220.309,482.17,184.287,482.17z M184.29,350.219c-35.858,0-65.231,29.166-65.478,65.017
			c-0.121,17.579,6.633,34.128,19.016,46.597c12.385,12.471,28.884,19.338,46.458,19.338c35.656,0,65.024-29.002,65.465-64.65
			l0.011-0.539V232.008c0-5.505,4.111-10.23,9.563-10.992l189.259-27.396c0.516-0.073,1.039-0.109,1.558-0.109
			c6.109,0,11.079,4.98,11.079,11.101v106.35c0,4.952-4.028,8.981-8.98,8.981c-1.314,0-2.599-0.288-3.818-0.857
			c-8.528-3.985-17.661-6.043-27.143-6.117l-0.521-0.002c-36.107,0-65.479,29.373-65.479,65.477
			c0.001,36.103,29.374,65.475,65.477,65.475l0.469-0.002c17.263-0.124,33.563-7.135,45.913-19.739
			c12.312-12.566,19.093-29.032,19.093-46.362l-0.001-240.704c0-5.273-4.281-9.564-9.543-9.564c-0.444,0-0.896,0.032-1.342,0.094
			l-241.89,34.746c-4.963,0.693-8.704,4.993-8.704,10.002v175.826c0,4.952-4.028,8.981-8.98,8.981c-1.315,0-2.6-0.289-3.818-0.858
			c-8.461-3.952-17.519-6.009-26.92-6.114L184.29,350.219z"/>
	</g>
	<g>
		<path d="M549.464,0.5H58.64C26.582,0.5,0.5,26.582,0.5,58.64v490.824c0,32.059,26.082,58.141,58.14,58.141h490.824
			c32.059,0,58.14-26.082,58.14-58.141V58.64C607.604,26.582,581.523,0.5,549.464,0.5z M564.764,549.464c0,8.45-6.85,15.3-15.3,15.3
			H58.64c-8.45,0-15.3-6.85-15.3-15.3V58.64c0-8.45,6.85-15.3,15.3-15.3h490.824c8.45,0,15.3,6.851,15.3,15.3V549.464z"/>
		<path d="M549.464,608.104H58.64C26.306,608.104,0,581.799,0,549.464V58.64C0,26.306,26.306,0,58.64,0h490.824
			c32.334,0,58.64,26.306,58.64,58.64v490.824C608.104,581.799,581.798,608.104,549.464,608.104z M58.64,1
			C26.857,1,1,26.857,1,58.64v490.824c0,31.783,25.857,57.641,57.64,57.641h490.824c31.782,0,57.64-25.857,57.64-57.641V58.64
			c0-31.783-25.857-57.64-57.64-57.64H58.64z M549.464,565.264H58.64c-8.712,0-15.8-7.088-15.8-15.8V58.64
			c0-8.712,7.088-15.8,15.8-15.8h490.824c8.712,0,15.8,7.088,15.8,15.8v490.824C565.264,558.176,558.176,565.264,549.464,565.264z
			 M58.64,43.84c-8.161,0-14.8,6.639-14.8,14.8v490.824c0,8.16,6.639,14.8,14.8,14.8h490.824c8.161,0,14.8-6.64,14.8-14.8V58.64
			c0-8.161-6.639-14.8-14.8-14.8H58.64z"/>
	</g>
</g>
</svg>